<svg xmlns="http://www.w3.org/2000/svg" width="256" height="256" viewBox="0 0 256 256" role="img" aria-label="Stoked gear logo">
  <defs><linearGradient id="g" x1="0" x2="1" y1="0" y2="1"><stop offset="0%" stop-color="#ff6a00"/><stop offset="100%" stop-color="#ff2d55"/></linearGradient></defs>
  <circle cx="128" cy="128" r="120" fill="#0f172a"/>
  <g transform="translate(128 128)"><g transform="translate(-64 -64) scale(0.9)">
    <path fill="url(#g)" d="M64 0l12 10 16-3 7 14 16 3 0 16 12 10-7 14 8 14-12 10 0 16-16 3-7 14-16-3-12 10-12-10-16 3-7-14-16-3 0-16-12-10 7-14-8-14 12-10 0-16 16-3 7-14 16 3 12-10z"/>
  </g></g>
</svg>
